<svg xmlns="http://www.w3.org/2000/svg" width="99" height="102" viewBox="0 0 99 102">
  <g id="Group_1706" data-name="Group 1706" transform="translate(3018 12786)">
    <circle id="Ellipse_251" data-name="Ellipse 251" cx="1.5" cy="1.5" r="1.5" transform="translate(-3018 -12786)" fill="#959595"/>
    <circle id="Ellipse_260" data-name="Ellipse 260" cx="1.5" cy="1.5" r="1.5" transform="translate(-3006 -12786)" fill="#959595"/>
    <circle id="Ellipse_269" data-name="Ellipse 269" cx="1.5" cy="1.5" r="1.5" transform="translate(-2994 -12786)" fill="#959595"/>
    <circle id="Ellipse_278" data-name="Ellipse 278" cx="1.5" cy="1.5" r="1.5" transform="translate(-2982 -12786)" fill="#959595"/>
    <circle id="Ellipse_287" data-name="Ellipse 287" cx="1.5" cy="1.5" r="1.5" transform="translate(-2970 -12786)" fill="#959595"/>
    <circle id="Ellipse_296" data-name="Ellipse 296" cx="1.5" cy="1.5" r="1.5" transform="translate(-2958 -12786)" fill="#959595"/>
    <circle id="Ellipse_305" data-name="Ellipse 305" cx="1.5" cy="1.5" r="1.5" transform="translate(-2946 -12786)" fill="#959595"/>
    <circle id="Ellipse_314" data-name="Ellipse 314" cx="1.5" cy="1.5" r="1.5" transform="translate(-2934 -12786)" fill="#959595"/>
    <circle id="Ellipse_323" data-name="Ellipse 323" cx="1.5" cy="1.5" r="1.5" transform="translate(-2922 -12786)" fill="#959595"/>
    <circle id="Ellipse_252" data-name="Ellipse 252" cx="1.5" cy="1.5" r="1.5" transform="translate(-3018 -12774)" fill="#959595"/>
    <circle id="Ellipse_261" data-name="Ellipse 261" cx="1.5" cy="1.5" r="1.5" transform="translate(-3006 -12774)" fill="#959595"/>
    <circle id="Ellipse_270" data-name="Ellipse 270" cx="1.5" cy="1.5" r="1.5" transform="translate(-2994 -12774)" fill="#959595"/>
    <circle id="Ellipse_279" data-name="Ellipse 279" cx="1.5" cy="1.5" r="1.5" transform="translate(-2982 -12774)" fill="#959595"/>
    <circle id="Ellipse_288" data-name="Ellipse 288" cx="1.5" cy="1.5" r="1.5" transform="translate(-2970 -12774)" fill="#959595"/>
    <circle id="Ellipse_297" data-name="Ellipse 297" cx="1.5" cy="1.5" r="1.5" transform="translate(-2958 -12774)" fill="#959595"/>
    <circle id="Ellipse_306" data-name="Ellipse 306" cx="1.5" cy="1.5" r="1.5" transform="translate(-2946 -12774)" fill="#959595"/>
    <circle id="Ellipse_315" data-name="Ellipse 315" cx="1.5" cy="1.5" r="1.5" transform="translate(-2934 -12774)" fill="#959595"/>
    <circle id="Ellipse_324" data-name="Ellipse 324" cx="1.5" cy="1.5" r="1.5" transform="translate(-2922 -12774)" fill="#959595"/>
    <circle id="Ellipse_253" data-name="Ellipse 253" cx="1.5" cy="1.5" r="1.5" transform="translate(-3018 -12761)" fill="#959595"/>
    <circle id="Ellipse_262" data-name="Ellipse 262" cx="1.5" cy="1.5" r="1.5" transform="translate(-3006 -12761)" fill="#959595"/>
    <circle id="Ellipse_271" data-name="Ellipse 271" cx="1.5" cy="1.5" r="1.5" transform="translate(-2994 -12761)" fill="#959595"/>
    <circle id="Ellipse_280" data-name="Ellipse 280" cx="1.5" cy="1.5" r="1.5" transform="translate(-2982 -12761)" fill="#959595"/>
    <circle id="Ellipse_289" data-name="Ellipse 289" cx="1.5" cy="1.5" r="1.5" transform="translate(-2970 -12761)" fill="#959595"/>
    <circle id="Ellipse_298" data-name="Ellipse 298" cx="1.5" cy="1.5" r="1.5" transform="translate(-2958 -12761)" fill="#959595"/>
    <circle id="Ellipse_307" data-name="Ellipse 307" cx="1.5" cy="1.5" r="1.5" transform="translate(-2946 -12761)" fill="#959595"/>
    <circle id="Ellipse_316" data-name="Ellipse 316" cx="1.5" cy="1.5" r="1.5" transform="translate(-2934 -12761)" fill="#959595"/>
    <circle id="Ellipse_325" data-name="Ellipse 325" cx="1.5" cy="1.5" r="1.5" transform="translate(-2922 -12761)" fill="#959595"/>
    <circle id="Ellipse_254" data-name="Ellipse 254" cx="1.5" cy="1.5" r="1.5" transform="translate(-3018 -12749)" fill="#959595"/>
    <circle id="Ellipse_263" data-name="Ellipse 263" cx="1.5" cy="1.5" r="1.5" transform="translate(-3006 -12749)" fill="#959595"/>
    <circle id="Ellipse_272" data-name="Ellipse 272" cx="1.5" cy="1.5" r="1.5" transform="translate(-2994 -12749)" fill="#959595"/>
    <circle id="Ellipse_281" data-name="Ellipse 281" cx="1.5" cy="1.5" r="1.5" transform="translate(-2982 -12749)" fill="#959595"/>
    <circle id="Ellipse_290" data-name="Ellipse 290" cx="1.5" cy="1.5" r="1.5" transform="translate(-2970 -12749)" fill="#959595"/>
    <circle id="Ellipse_299" data-name="Ellipse 299" cx="1.5" cy="1.5" r="1.5" transform="translate(-2958 -12749)" fill="#959595"/>
    <circle id="Ellipse_308" data-name="Ellipse 308" cx="1.5" cy="1.5" r="1.5" transform="translate(-2946 -12749)" fill="#959595"/>
    <circle id="Ellipse_317" data-name="Ellipse 317" cx="1.5" cy="1.5" r="1.5" transform="translate(-2934 -12749)" fill="#959595"/>
    <circle id="Ellipse_326" data-name="Ellipse 326" cx="1.5" cy="1.5" r="1.5" transform="translate(-2922 -12749)" fill="#959595"/>
    <circle id="Ellipse_255" data-name="Ellipse 255" cx="1.5" cy="1.5" r="1.5" transform="translate(-3018 -12736)" fill="#959595"/>
    <circle id="Ellipse_264" data-name="Ellipse 264" cx="1.5" cy="1.5" r="1.5" transform="translate(-3006 -12736)" fill="#959595"/>
    <circle id="Ellipse_273" data-name="Ellipse 273" cx="1.5" cy="1.5" r="1.5" transform="translate(-2994 -12736)" fill="#959595"/>
    <circle id="Ellipse_282" data-name="Ellipse 282" cx="1.5" cy="1.5" r="1.5" transform="translate(-2982 -12736)" fill="#959595"/>
    <circle id="Ellipse_291" data-name="Ellipse 291" cx="1.5" cy="1.5" r="1.5" transform="translate(-2970 -12736)" fill="#959595"/>
    <circle id="Ellipse_300" data-name="Ellipse 300" cx="1.5" cy="1.5" r="1.5" transform="translate(-2958 -12736)" fill="#959595"/>
    <circle id="Ellipse_309" data-name="Ellipse 309" cx="1.5" cy="1.5" r="1.5" transform="translate(-2946 -12736)" fill="#959595"/>
    <circle id="Ellipse_318" data-name="Ellipse 318" cx="1.5" cy="1.5" r="1.5" transform="translate(-2934 -12736)" fill="#959595"/>
    <circle id="Ellipse_327" data-name="Ellipse 327" cx="1.5" cy="1.5" r="1.5" transform="translate(-2922 -12736)" fill="#959595"/>
    <circle id="Ellipse_256" data-name="Ellipse 256" cx="1.5" cy="1.5" r="1.5" transform="translate(-3018 -12724)" fill="#959595"/>
    <circle id="Ellipse_265" data-name="Ellipse 265" cx="1.5" cy="1.5" r="1.5" transform="translate(-3006 -12724)" fill="#959595"/>
    <circle id="Ellipse_274" data-name="Ellipse 274" cx="1.5" cy="1.5" r="1.5" transform="translate(-2994 -12724)" fill="#959595"/>
    <circle id="Ellipse_283" data-name="Ellipse 283" cx="1.5" cy="1.5" r="1.5" transform="translate(-2982 -12724)" fill="#959595"/>
    <circle id="Ellipse_292" data-name="Ellipse 292" cx="1.5" cy="1.5" r="1.5" transform="translate(-2970 -12724)" fill="#959595"/>
    <circle id="Ellipse_301" data-name="Ellipse 301" cx="1.5" cy="1.5" r="1.5" transform="translate(-2958 -12724)" fill="#959595"/>
    <circle id="Ellipse_310" data-name="Ellipse 310" cx="1.5" cy="1.5" r="1.5" transform="translate(-2946 -12724)" fill="#959595"/>
    <circle id="Ellipse_319" data-name="Ellipse 319" cx="1.5" cy="1.5" r="1.5" transform="translate(-2934 -12724)" fill="#959595"/>
    <circle id="Ellipse_328" data-name="Ellipse 328" cx="1.5" cy="1.5" r="1.5" transform="translate(-2922 -12724)" fill="#959595"/>
    <circle id="Ellipse_257" data-name="Ellipse 257" cx="1.5" cy="1.5" r="1.5" transform="translate(-3018 -12712)" fill="#959595"/>
    <circle id="Ellipse_266" data-name="Ellipse 266" cx="1.5" cy="1.5" r="1.5" transform="translate(-3006 -12712)" fill="#959595"/>
    <circle id="Ellipse_275" data-name="Ellipse 275" cx="1.5" cy="1.5" r="1.5" transform="translate(-2994 -12712)" fill="#959595"/>
    <circle id="Ellipse_284" data-name="Ellipse 284" cx="1.5" cy="1.5" r="1.5" transform="translate(-2982 -12712)" fill="#959595"/>
    <circle id="Ellipse_293" data-name="Ellipse 293" cx="1.5" cy="1.5" r="1.5" transform="translate(-2970 -12712)" fill="#959595"/>
    <circle id="Ellipse_302" data-name="Ellipse 302" cx="1.5" cy="1.5" r="1.5" transform="translate(-2958 -12712)" fill="#959595"/>
    <circle id="Ellipse_311" data-name="Ellipse 311" cx="1.5" cy="1.5" r="1.5" transform="translate(-2946 -12712)" fill="#959595"/>
    <circle id="Ellipse_320" data-name="Ellipse 320" cx="1.5" cy="1.5" r="1.5" transform="translate(-2934 -12712)" fill="#959595"/>
    <circle id="Ellipse_329" data-name="Ellipse 329" cx="1.5" cy="1.5" r="1.5" transform="translate(-2922 -12712)" fill="#959595"/>
    <circle id="Ellipse_258" data-name="Ellipse 258" cx="1.5" cy="1.5" r="1.5" transform="translate(-3018 -12699)" fill="#959595"/>
    <circle id="Ellipse_267" data-name="Ellipse 267" cx="1.5" cy="1.5" r="1.5" transform="translate(-3006 -12699)" fill="#959595"/>
    <circle id="Ellipse_276" data-name="Ellipse 276" cx="1.5" cy="1.5" r="1.5" transform="translate(-2994 -12699)" fill="#959595"/>
    <circle id="Ellipse_285" data-name="Ellipse 285" cx="1.5" cy="1.5" r="1.5" transform="translate(-2982 -12699)" fill="#959595"/>
    <circle id="Ellipse_294" data-name="Ellipse 294" cx="1.5" cy="1.5" r="1.5" transform="translate(-2970 -12699)" fill="#959595"/>
    <circle id="Ellipse_303" data-name="Ellipse 303" cx="1.5" cy="1.5" r="1.5" transform="translate(-2958 -12699)" fill="#959595"/>
    <circle id="Ellipse_312" data-name="Ellipse 312" cx="1.5" cy="1.5" r="1.5" transform="translate(-2946 -12699)" fill="#959595"/>
    <circle id="Ellipse_321" data-name="Ellipse 321" cx="1.5" cy="1.5" r="1.5" transform="translate(-2934 -12699)" fill="#959595"/>
    <circle id="Ellipse_330" data-name="Ellipse 330" cx="1.5" cy="1.5" r="1.5" transform="translate(-2922 -12699)" fill="#959595"/>
    <circle id="Ellipse_259" data-name="Ellipse 259" cx="1.5" cy="1.5" r="1.5" transform="translate(-3018 -12687)" fill="#959595"/>
    <circle id="Ellipse_268" data-name="Ellipse 268" cx="1.5" cy="1.5" r="1.5" transform="translate(-3006 -12687)" fill="#959595"/>
    <circle id="Ellipse_277" data-name="Ellipse 277" cx="1.5" cy="1.5" r="1.5" transform="translate(-2994 -12687)" fill="#959595"/>
    <circle id="Ellipse_286" data-name="Ellipse 286" cx="1.5" cy="1.5" r="1.5" transform="translate(-2982 -12687)" fill="#959595"/>
    <circle id="Ellipse_295" data-name="Ellipse 295" cx="1.5" cy="1.5" r="1.5" transform="translate(-2970 -12687)" fill="#959595"/>
    <circle id="Ellipse_304" data-name="Ellipse 304" cx="1.5" cy="1.5" r="1.5" transform="translate(-2958 -12687)" fill="#959595"/>
    <circle id="Ellipse_313" data-name="Ellipse 313" cx="1.5" cy="1.5" r="1.5" transform="translate(-2946 -12687)" fill="#959595"/>
    <circle id="Ellipse_322" data-name="Ellipse 322" cx="1.5" cy="1.5" r="1.5" transform="translate(-2934 -12687)" fill="#959595"/>
    <circle id="Ellipse_331" data-name="Ellipse 331" cx="1.5" cy="1.5" r="1.5" transform="translate(-2922 -12687)" fill="#959595"/>
  </g>
</svg>
