<svg id="Group_1208" data-name="Group 1208" xmlns="http://www.w3.org/2000/svg" width="19.422" height="19.422" viewBox="0 0 19.422 19.422">
  <g id="arrow-left" transform="translate(4.166 3.035)">
    <path id="Vector" d="M3.816,7.632a.415.415,0,0,1-.3-.123l-3.4-3.4a.422.422,0,0,1,0-.593l3.4-3.4a.419.419,0,1,1,.593.593l-3.1,3.1,3.1,3.1a.422.422,0,0,1,0,.593A.406.406,0,0,1,3.816,7.632Z" transform="translate(1.54 2.9)" fill="#fff"/>
    <path id="Vector-2" data-name="Vector" d="M9.839.84H.42A.423.423,0,0,1,0,.42.423.423,0,0,1,.42,0H9.839a.423.423,0,0,1,.42.42A.423.423,0,0,1,9.839.84Z" transform="translate(1.634 6.296)" fill="#fff"/>
    <path id="Vector-3" data-name="Vector" d="M0,0H13.432V13.432H0Z" fill="none" opacity="0"/>
  </g>
  <g id="Ellipse_700" data-name="Ellipse 700" fill="none" stroke="#fff" stroke-linecap="round" strokeWidth="0.56">
    <ellipse cx="9.711" cy="9.711" rx="9.711" ry="9.711" stroke="none"/>
    <ellipse cx="9.711" cy="9.711" rx="9.431" ry="9.431" fill="none"/>
  </g>
</svg>
